<svg xmlns="http://www.w3.org/2000/svg" width="295" height="338.077" viewBox="0 0 295 338.077">
  <g id="Group_46" data-name="Group 46" transform="translate(-1059 -648)">
    <path id="Path_11" data-name="Path 11" d="M601.719-239.217c-24.331,63.128-7.233,88.774-74.307,103.9S404.442-57.723,411.676-.512s103.241,81.541,144.012,77.6,59.183-6.576,85.486-26.3,34.852-38.14,45.374-51.292,5.1-17.755,16.44-57.21-21.536,0,0-77.6S626.049-302.345,601.719-239.217Z" transform="translate(647.956 908.582)" fill="#f74b5a"/>
    <path id="Path_16" data-name="Path 16" d="M585.507-241.033c-22.262,57.761-6.618,81.227-67.99,95.065S405-74.97,411.622-22.624s94.464,74.608,131.768,71,54.151-6.017,78.218-24.067,31.889-34.9,41.516-46.931,4.663-16.245,15.042-52.346-19.705,0,0-71S607.77-298.795,585.507-241.033Z" transform="translate(658.956 920.325)" fill="none" stroke="#fff" stroke-width="3" opacity="0.8"/>
  </g>
</svg>
