<svg xmlns="http://www.w3.org/2000/svg" width="366.97" height="410.658" viewBox="0 0 366.97 410.658">
  <g id="Group_45" data-name="Group 45" transform="translate(79.97 48)">
    <path id="Path_18" data-name="Path 18" d="M536.224,119.439C565.418,43.692,544.9,12.919,625.385-5.229s147.55-93.107,138.871-161.753-123.879-97.841-172.8-93.107-71.013,7.89-102.575,31.562-41.819,45.764-54.444,61.545-6.115,21.3-19.726,68.646,25.841,0,0,93.107S507.029,195.187,536.224,119.439Z" transform="translate(-478.014 217.582)" fill="#28397e" opacity="0.06"/>
    <path id="Path_1" data-name="Path 1" d="M536.224,119.439C565.418,43.692,544.9,12.919,625.385-5.229s147.55-93.107,138.871-161.753-123.879-97.841-172.8-93.107-71.013,7.89-102.575,31.562-41.819,45.764-54.444,61.545-6.115,21.3-19.726,68.646,25.841,0,0,93.107S507.029,195.187,536.224,119.439Z" transform="translate(-491.014 212.582)" fill="#28397e"/>
    <path id="Path_15" data-name="Path 15" d="M528.547,96.134c27.4-71.1,8.147-99.988,83.693-117.023s138.5-87.4,130.355-151.833-116.282-91.841-162.2-87.4-66.658,7.407-96.285,29.626-39.255,42.958-51.1,57.771-5.74,20-18.516,64.437,24.256,0,0,87.4S501.143,167.237,528.547,96.134Z" transform="translate(-482.369 229.76)" fill="#28397e" stroke="#fff" stroke-width="3" opacity="0.8"/>
  </g>
</svg>
